Coordinates
version=1
nRows=26
nColumns=24
inDegrees=yes

Units are S.I. units (second, meters, Newtons, ...)
Angles are in degrees.

endheader
time	pelvis_tilt	pelvis_list	pelvis_rotation	pelvis_tx	pelvis_ty	pelvis_tz	hip_flexion_r	hip_adduction_r	hip_rotation_r	knee_angle_r	ankle_angle_r	subtalar_angle_r	mtp_angle_r	hip_flexion_l	hip_adduction_l	hip_rotation_l	knee_angle_l	ankle_angle_l	subtalar_angle_l	mtp_angle_l	lumbar_extension	lumbar_bending	lumbar_rotation
      5.41500000	     11.92334314	     10.64907490	      7.37210295	      1.61785068	      0.75878357	     -0.31404507	     10.12814853	    -13.77768387	     -9.92782931	    -59.77181237	     21.76470929	     -3.77141230	      0.00000000	    -10.75838183	     14.24406955	     10.80643105	    -13.52065909	     24.63053499	      4.53056892	      0.00000000	    -33.63009443	     -6.75215259	     -5.54973315
      5.42000000	     11.97996388	     10.72044571	      7.62124498	      1.62448846	      0.75891923	     -0.31412879	     10.72214657	    -13.97325788	    -10.15303967	    -58.55174077	     22.09754538	     -3.39663258	      0.00000000	    -11.63592021	     14.11717390	     10.91737976	    -13.10459275	     24.87095145	      4.78670010	      0.00000000	    -33.84352601	     -6.66940940	     -6.01010652
      5.42500000	     12.07089243	     10.80105998	      7.85619901	      1.63110996	      0.75902647	     -0.31418970	     11.24174865	    -14.17128947	    -10.37779162	    -57.23351335	     22.32710638	     -3.05109652	      0.00000000	    -12.54763149	     13.98881058	     11.01556183	    -12.68954691	     25.11870701	      5.05831801	      0.00000000	    -34.10261922	     -6.59147646	     -6.46425198
      5.43000000	     12.13640222	     10.89621939	      8.11182383	      1.63773065	      0.75905387	     -0.31423427	     11.73651919	    -14.38803489	    -10.64210253	    -55.81454428	     22.53234156	     -2.78061587	      0.00000000	    -13.42107953	     13.86645763	     11.06801966	    -12.30162299	     25.34783505	      5.33937524	      0.00000000	    -34.34206061	     -6.52893166	     -6.93889408
      5.43500000	     12.21830503	     11.00006046	      8.35766572	      1.64434443	      0.75904142	     -0.31427064	     12.17010322	    -14.60878859	    -10.91402373	    -54.29538846	     22.66321443	     -2.54525715	      0.00000000	    -14.30610599	     13.74725503	     11.10438543	    -11.92489038	     25.57518991	      5.62575124	      0.00000000	    -34.60340543	     -6.47020276	     -7.40945258
      5.44000000	     12.29743496	     11.11418332	      8.60410216	      1.65095849	      0.75897449	     -0.31429400	     12.55858898	    -14.83478787	    -11.19788329	    -52.67740760	     22.73968799	     -2.35672054	      0.00000000	    -15.18231892	     13.63257721	     11.12372213	    -11.56209732	     25.78992554	      5.91343234	      0.00000000	    -34.86653354	     -6.41981386	     -7.88213076
      5.44500000	     12.37915274	     11.23216667	      8.84309785	      1.65756743	      0.75885911	     -0.31428273	     12.89876351	    -15.05291411	    -11.48344551	    -50.96050739	     22.76092431	     -2.19263056	      0.00000000	    -16.05297589	     13.51581245	     11.13195525	    -11.21263686	     26.00557472	      6.19644878	      0.00000000	    -35.13838408	     -6.37920562	     -8.34709341
      5.45000000	     12.46043890	     11.35476701	      9.07404710	      1.66418485	      0.75869338	     -0.31426861	     13.18970955	    -15.27106352	    -11.78517791	    -49.14251519	     22.74038800	     -2.05268916	      0.00000000	    -16.91160843	     13.40329256	     11.12675484	    -10.88928284	     26.21375687	      6.47650302	      0.00000000	    -35.40655211	     -6.33962433	     -8.81430744
      5.45500000	     12.53972701	     11.47685035	      9.29991841	      1.67079563	      0.75847895	     -0.31421767	     13.43520281	    -15.47197823	    -12.08235147	    -47.22854167	     22.68096004	     -1.91163615	      0.00000000	    -17.75871070	     13.28408304	     11.11133589	    -10.57779937	     26.42797331	      6.74893830	      0.00000000	    -35.67962280	     -6.30616886	     -9.27205247
      5.46000000	     12.60009177	     11.60150480	      9.52097657	      1.67742338	      0.75820436	     -0.31417517	     13.64907696	    -15.67049273	    -12.39253375	    -45.21800602	     22.59167417	     -1.77435259	      0.00000000	    -18.57483155	     13.17080233	     11.08709012	    -10.29038970	     26.62229517	      7.01589628	      0.00000000	    -35.92609508	     -6.27353111	     -9.72403086
      5.46500000	     12.65695582	     11.72009848	      9.72314838	      1.68406115	      0.75788065	     -0.31409309	     13.81927950	    -15.84376760	    -12.69530795	    -43.11090531	     22.47796009	     -1.60132018	      0.00000000	    -19.37214349	     13.05216489	     11.06520909	    -10.02714743	     26.81647240	      7.28230581	      0.00000000	    -36.16522959	     -6.24618859	    -10.16252948
      5.47000000	     12.71823908	     11.83899036	      9.91059712	      1.69071150	      0.75752214	     -0.31398485	     13.93165646	    -15.99366734	    -12.97897331	    -40.90830457	     22.35403912	     -1.37262225	      0.00000000	    -20.16339064	     12.93139671	     11.03630153	     -9.78114473	     26.99981113	      7.55816858	      0.00000000	    -36.41020560	     -6.22383371	    -10.58125901
      5.47500000	     12.72470004	     11.95294317	     10.11751246	      1.69738627	      0.75707351	     -0.31390814	     14.04699511	    -16.14723400	    -13.31953203	    -38.63035795	     22.18935578	     -1.12252464	      0.00000000	    -20.87489156	     12.81296520	     11.00511540	     -9.58480991	     27.19439615	      7.80593547	      0.00000000	    -36.58420760	     -6.19341723	    -11.01755079
      5.48000000	     12.77368034	     12.07362134	     10.28031824	      1.70409595	      0.75662541	     -0.31375245	     14.06677715	    -16.26949682	    -13.63181680	    -36.26614248	     22.05009135	     -0.75309382	      0.00000000	    -21.62886927	     12.69281440	     10.95414587	     -9.38543917	     27.34558547	      8.08938656	      0.00000000	    -36.80513243	     -6.18873500	    -11.41867987
      5.48500000	     12.72497369	     12.16687071	     10.49034040	      1.71081088	      0.75605922	     -0.31361648	     14.13483418	    -16.36814765	    -13.98547399	    -33.83885258	     21.83531631	     -0.34472493	      0.00000000	    -22.23891517	     12.55331880	     10.95157900	     -9.26635377	     27.55014782	      8.33300102	      0.00000000	    -36.91322530	     -6.15809206	    -11.84777878
      5.49000000	     12.74759664	     12.28632947	     10.64764512	      1.71760276	      0.75551949	     -0.31345008	     14.07592704	    -16.46325493	    -14.34098364	    -31.35505730	     21.66267972	      0.22560218	      0.00000000	    -22.93491487	     12.43061977	     10.90972060	     -9.13383534	     27.68826323	      8.62910419	      0.00000000	    -37.08503704	     -6.15641549	    -12.25220220
      5.49500000	     12.65671893	     12.36267003	     10.85100012	      1.72439309	      0.75484827	     -0.31327608	     14.09085179	    -16.50698238	    -14.69291941	    -28.82872772	     21.40559117	      0.82637386	      0.00000000	    -23.45322164	     12.27821287	     10.94365328	     -9.10797231	     27.90885371	      8.87613998	      0.00000000	    -37.13052693	     -6.12700312	    -12.65658762
      5.50000000	     12.61106447	     12.45623399	     11.03641667	      1.73125937	      0.75419209	     -0.31308063	     14.00351881	    -16.54620458	    -15.07564901	    -26.27667441	     21.16014173	      1.58928775	      0.00000000	    -24.01761087	     12.12699657	     10.96719823	     -9.09670940	     28.08546063	      9.17474117	      0.00000000	    -37.21216766	     -6.10905784	    -13.06706243
      5.50500000	     12.60241334	     12.57599540	     11.18701519	      1.73819750	      0.75353472	     -0.31285037	     13.84689636	    -16.58873769	    -15.45464412	    -23.74541795	     20.90725944	      2.50844827	      0.00000000	    -24.62091532	     11.99396405	     10.96689767	     -9.09286114	     28.20222420	      9.50018927	      0.00000000	    -37.32424039	     -6.12158774	    -13.48102416
      5.51000000	     12.51943698	     12.67157467	     11.37457711	      1.74516843	      0.75278832	     -0.31260168	     13.73407719	    -16.59210164	    -15.79902153	    -21.23939168	     20.58216875	      3.43148757	      0.00000000	    -25.09608474	     11.84025485	     11.03515175	     -9.19035814	     28.37587045	      9.80810949	      0.00000000	    -37.34798517	     -6.12101455	    -13.90380422
      5.51500000	     12.43429625	     12.76272940	     11.55473569	      1.75221455	      0.75201149	     -0.31232724	     13.59987279	    -16.57002616	    -16.10378372	    -18.79344108	     20.22959000	      4.42733261	      0.00000000	    -25.54629259	     11.67963052	     11.12096718	     -9.33669016	     28.55548896	     10.11945648	      0.00000000	    -37.35296474	     -6.12144964	    -14.32781987
      5.52000000	     12.27570164	     12.81904754	     11.75048611	      1.75932137	      0.75115137	     -0.31201775	     13.52772345	    -16.49354508	    -16.30018281	    -16.42283293	     19.80447807	      5.31639784	      0.00000000	    -25.86634617	     11.49800067	     11.25667966	     -9.58237168	     28.73787707	     10.38674816	      0.00000000	    -37.26338004	     -6.11318989	    -14.70671591
      5.52500000	     12.19861844	     12.91258728	     11.94317245	      1.76650792	      0.75035206	     -0.31170105	     13.34298659	    -16.44212398	    -16.50586809	    -14.18187556	     19.38648376	      6.33964157	      0.00000000	    -26.27044252	     11.31894808	     11.39269177	     -9.85252856	     28.91196463	     10.73778233	      0.00000000	    -37.25220526	     -6.11242922	    -15.16411206
      5.53000000	     12.08479141	     12.99538354	     12.11659006	      1.77375600	      0.74950247	     -0.31134374	     13.20805437	    -16.36419165	    -16.56091009	    -12.09618458	     18.92100273	      7.24528041	      0.00000000	    -26.59056809	     11.15035029	     11.55752246	    -10.21264426	     29.04884906	     11.03942707	      0.00000000	    -37.18884150	     -6.12882254	    -15.56746876
      5.53500000	     11.97889385	     13.07896604	     12.29134224	      1.78107804	      0.74865346	     -0.31097317	     13.06531548	    -16.28106312	    -16.52572438	    -10.19768319	     18.45508176	      8.08597025	      0.00000000	    -26.88695532	     10.97784469	     11.74912744	    -10.64509497	     29.18105192	     11.34883187	      0.00000000	    -37.11820354	     -6.14054480	    -15.98722355
      5.54000000	     11.88723818	     13.15620869	     12.45662787	      1.78848522	      0.74780747	     -0.31059786	     12.91995067	    -16.19090371	    -16.40727201	     -8.51769152	     18.02568002	      8.86074216	      0.00000000	    -27.16825392	     10.79963205	     11.95632736	    -11.14088237	     29.31356874	     11.65543785	      0.00000000	    -37.04500544	     -6.14758212	    -16.40213553
